<?xml version="1.0" encoding="utf-8"?>
<!-- Generator: Adobe Illustrator 22.1.0, SVG Export Plug-In . SVG Version: 6.00 Build 0)  -->
<svg version="1.1" id="Capa_1" xmlns="http://www.w3.org/2000/svg" xmlns:xlink="http://www.w3.org/1999/xlink" x="0px" y="0px"
	 viewBox="0 0 483.3 483.3" style="enable-background:new 0 0 483.3 483.3;" xml:space="preserve">
<style type="text/css">
	.st0{fill:#FFFFFF;}
</style>
<g>
	<g>
		<path class="st0" d="M424.3,57.8H59.1C26.5,57.8,0,84.3,0,116.8v249.6c0,32.6,26.5,59.1,59.1,59.1h365.1
			c32.6,0,59.1-26.5,59.1-59.1V117C483.4,84.3,456.9,57.8,424.3,57.8z M456.4,366.5c0,17.7-14.4,32.1-32.1,32.1H59.1
			c-17.7,0-32.1-14.4-32.1-32.1V117c0-17.7,14.4-32.1,32.1-32.1h365.1c17.7,0,32.1,14.4,32.1,32.1L456.4,366.5L456.4,366.5z"/>
		<path class="st0" d="M317.6,233.7l140.2-125.8c6.5-5.9,7.1-16,1.2-22.7c-5.9-6.5-16-7.1-22.7-1.2L242.9,257.7L205.2,224
			c-0.1-0.1-0.2-0.2-0.2-0.4c-0.8-0.8-1.7-1.5-2.6-2.3L48.8,84c-6.6-5.9-16.7-5.3-22.7,1.3c-5.9,6.6-5.3,16.7,1.3,22.7l141.9,126.8
			L28.1,367.1c-6.4,6.1-6.8,16.1-0.7,22.7c3.2,3.3,7.5,5.1,11.7,5.1c3.9,0,7.8-1.4,10.9-4.3l143.4-134.2l38.9,34.8
			c3.1,2.7,6.9,4,10.7,4s7.7-1.4,10.7-4.2l40-35.8l142.6,135.5c3.1,3,7.1,4.4,11,4.4c4.3,0,8.4-1.7,11.6-5
			c6.1-6.4,5.8-16.6-0.6-22.7L317.6,233.7z"/>
	</g>
</g>
</svg>
