<?xml version="1.0" encoding="utf-8"?>
<!-- Generator: Adobe Illustrator 22.1.0, SVG Export Plug-In . SVG Version: 6.00 Build 0)  -->
<svg version="1.1" id="Capa_1" xmlns="http://www.w3.org/2000/svg" xmlns:xlink="http://www.w3.org/1999/xlink" x="0px" y="0px"
	 viewBox="0 0 438.5 438.5" style="enable-background:new 0 0 438.5 438.5;" xml:space="preserve">
<style type="text/css">
	.st0{fill:#FFFFFF;}
</style>
<g>
	<polygon class="st0" points="125.3,406.5 31.5,406.5 31.5,34.7 125.3,34.7 125.3,19 31.5,19 15.8,19 15.8,34.7 15.8,406.5 
		15.8,422.2 31.5,422.2 125.3,422.2 	"/>
	<polygon class="st0" points="403.3,19 309.5,19 309.5,34.7 403.3,34.7 403.3,406.5 309.5,406.5 309.5,422.2 403.3,422.2 419,422.2 
		419,406.5 419,34.7 419,19 	"/>
</g>
<path class="st0" d="M216.4,151.8l60.7,144.7l-53.7-27.1l-7.1-3.6l-7.1,3.6l-53.7,27.1L216.4,151.8 M216.4,111.3l-91.7,218.4
	l91.7-46.4l91.7,46.4L216.4,111.3L216.4,111.3z"/>
</svg>
