<?xml version="1.0" encoding="utf-8"?>
<!-- Generator: Adobe Illustrator 22.1.0, SVG Export Plug-In . SVG Version: 6.00 Build 0)  -->
<svg version="1.1" id="Capa_1" xmlns="http://www.w3.org/2000/svg" xmlns:xlink="http://www.w3.org/1999/xlink" x="0px" y="0px"
	 viewBox="0 0 438.5 438.5" style="enable-background:new 0 0 438.5 438.5;" xml:space="preserve">
<style type="text/css">
	.st0{fill:#FFFFFF;}
</style>
<g>
	<g>
		<path class="st0" d="M434.4,85.8c-15.8,7-32.8,11.8-50.7,13.9c18.2-10.9,32.2-28.2,38.8-48.8c-17.1,10.1-36,17.5-56.1,21.4
			c-16.1-17.2-39-27.9-64.4-27.9c-48.8,0-88.3,39.5-88.3,88.3c0,6.9,0.8,13.7,2.3,20.1C142.7,149.2,77.6,114,34.1,60.6
			c-7.6,13-11.9,28.2-11.9,44.4c0,30.6,15.6,57.7,39.3,73.5c-14.5-0.5-28.1-4.5-40-11.1v1.1c0,42.8,30.4,78.4,70.8,86.6
			c-7.4,2-15.2,3.1-23.3,3.1c-5.7,0-11.2-0.6-16.6-1.6c11.2,35.1,43.8,60.6,82.4,61.3c-30.2,23.7-68.3,37.7-109.6,37.7
			c-7.1,0-14.1-0.4-21.1-1.2C43.2,379.4,89.5,394,139.4,394c162.4,0,251.2-134.5,251.2-251.2l-0.3-11.4
			C407.6,119.1,422.6,103.5,434.4,85.8z"/>
	</g>
</g>
</svg>
